<?xml version="1.0" standalone="no"?>
<!DOCTYPE svg PUBLIC "-//W3C//DTD SVG 20010904//EN"
 "http://www.w3.org/TR/2001/REC-SVG-20010904/DTD/svg10.dtd">
<svg version="1.0" xmlns="http://www.w3.org/2000/svg"
 width="128.000000pt" height="128.000000pt" viewBox="0 0 128.000000 128.000000"
 preserveAspectRatio="xMidYMid meet">
<metadata>
Created by potrace 1.11, written by Peter Selinger 2001-2013
</metadata>
<g transform="translate(0.000000,128.000000) scale(0.100000,-0.100000)"
fill="#000000" stroke="none">
<path d="M36 993 c-4 -24 -2 -705 2 -725 5 -21 66 5 361 153 l320 161 162 -81
c88 -45 167 -81 175 -81 8 0 14 -4 14 -8 0 -10 132 -72 153 -72 21 0 19 -24
22 295 2 260 -2 305 -27 305 -6 0 -121 -55 -254 -122 l-244 -121 -51 26 c-54
29 -79 33 -95 17 -6 -6 -41 10 -99 45 -118 73 -121 74 -185 116 -88 57 -207
119 -228 119 -14 0 -22 -8 -26 -27z m299 -219 c128 -65 196 -94 212 -91 12 2
23 1 23 -4 0 -4 7 -15 16 -24 9 -9 15 -17 13 -19 -24 -17 -453 -225 -457 -221
-3 2 -5 98 -4 212 1 237 1 243 6 243 2 0 88 -43 191 -96z m809 -142 l1 -149
-29 18 c-22 13 -34 15 -51 7 -20 -9 -33 -3 -102 49 -43 33 -89 63 -102 68 -12
4 -19 11 -15 15 16 15 288 149 293 144 2 -2 5 -71 5 -152z"/>
</g>
</svg>
